<?xml version="1.0" standalone="no"?>
<!DOCTYPE svg PUBLIC "-//W3C//DTD SVG 20010904//EN"
 "http://www.w3.org/TR/2001/REC-SVG-20010904/DTD/svg10.dtd">
<svg version="1.0" xmlns="http://www.w3.org/2000/svg"
 width="415.000000pt" height="415.000000pt" viewBox="0 0 415.000000 415.000000"
 preserveAspectRatio="xMidYMid meet">
<metadata>
Created by potrace 1.11, written by Peter Selinger 2001-2013
</metadata>
<g transform="translate(0.000000,415.000000) scale(0.100000,-0.100000)"
fill="#000000" stroke="none">
<path d="M631 2780 c-36 -4 -58 -12 -67 -25 -23 -31 -1 -95 32 -95 8 0 14 -4
14 -8 0 -5 25 -7 55 -6 30 1 54 -1 54 -4 -1 -4 -1 -91 0 -194 l1 -186 29 -28
c31 -29 80 -38 88 -17 3 7 10 10 16 6 7 -4 8 0 4 11 -6 14 -3 17 8 12 10 -4
14 -2 9 5 -8 14 -8 285 1 299 3 5 3 10 -2 10 -4 0 -7 20 -5 45 3 30 9 45 18
45 8 0 11 -6 7 -17 -5 -15 -3 -15 10 2 13 17 17 18 33 5 10 -8 15 -10 11 -3
-5 8 2 11 24 11 20 -1 35 5 41 16 5 9 12 14 16 12 4 -2 6 13 4 34 -7 67 -20
72 -194 74 -84 0 -177 -1 -207 -4z"/>
<path d="M1661 2768 c-146 -55 -209 -244 -134 -407 33 -73 129 -143 196 -142
9 0 15 -4 12 -10 -4 -5 -2 -9 4 -9 5 0 13 5 17 11 5 8 8 8 14 0 5 -8 14 -9 33
-2 22 9 27 8 27 -5 0 -12 5 -10 20 7 17 21 19 21 14 4 -6 -16 -5 -18 7 -7 7 6
24 12 37 12 15 0 21 4 16 12 -5 7 -2 9 9 5 9 -3 18 1 21 10 5 13 9 13 23 2 12
-10 14 -10 9 -1 -5 8 -1 12 10 12 10 0 15 3 11 6 -6 7 15 34 23 29 3 -2 5 29
5 68 0 40 4 75 10 79 6 5 5 8 -2 8 -7 0 -13 9 -13 20 0 12 -11 32 -25 45 -22
23 -32 25 -118 25 -84 0 -96 -2 -115 -23 -30 -31 -18 -78 24 -92 16 -5 32 -14
35 -18 4 -5 16 -4 27 2 28 15 29 14 34 -13 6 -31 -19 -46 -87 -53 -63 -7 -116
15 -135 55 -20 43 -28 88 -18 106 6 10 5 16 -1 16 -5 0 -7 9 -4 20 3 11 8 18
12 16 3 -2 7 7 7 21 2 27 30 63 51 63 7 0 13 5 13 10 0 6 5 10 11 10 5 0 8 -4
5 -8 -3 -5 1 -9 9 -9 8 0 11 5 8 10 -4 6 0 8 10 4 10 -4 17 -1 17 6 0 8 3 8 9
-2 7 -11 9 -11 13 0 3 8 22 -5 54 -38 27 -28 56 -53 64 -55 8 -2 18 -7 22 -13
5 -6 8 -5 8 3 0 6 5 12 11 12 5 0 7 -6 3 -12 -4 -7 2 -4 14 6 24 21 29 32 10
20 -7 -4 -8 -3 -4 4 4 7 14 12 22 12 9 0 12 5 8 12 -4 7 -9 23 -10 36 -5 48
-65 108 -130 129 -52 18 -164 13 -223 -9z"/>
<path d="M2894 2769 c-17 -19 -19 -40 -20 -252 -2 -251 4 -282 50 -303 13 -6
30 -8 37 -3 8 4 16 3 20 -2 3 -6 9 1 13 15 4 15 11 24 16 21 5 -3 12 0 16 6 4
8 3 9 -4 5 -7 -4 -12 -1 -12 9 0 9 5 13 11 9 8 -4 8 0 0 15 -9 16 -9 21 1 21
10 0 10 2 0 9 -8 4 -14 12 -14 16 0 4 6 12 14 16 8 6 9 9 1 9 -12 0 -12 17 -1
35 4 6 3 17 -2 25 -5 9 -5 19 2 27 6 7 7 13 3 13 -4 0 -1 8 6 17 9 11 10 14 2
9 -9 -5 -11 -2 -7 9 4 9 13 14 21 11 9 -4 11 -2 7 6 -5 8 -2 9 9 5 10 -3 17
-2 17 3 0 16 29 -1 35 -21 4 -11 6 -59 6 -107 0 -118 6 -148 36 -168 27 -17
76 -27 67 -13 -3 5 2 9 10 9 8 0 18 5 22 12 4 7 3 8 -4 4 -8 -5 -10 -2 -6 8 3
9 9 14 13 12 8 -6 5 242 -4 279 -13 51 -52 93 -97 106 -43 11 -104 5 -125 -13
-15 -12 -14 -16 -18 47 -4 74 -3 73 -25 95 -26 26 -72 26 -96 -1z"/>
<path d="M2624 2755 c-16 -17 -25 -35 -24 -53 4 -49 0 -61 -18 -67 -44 -13
-45 -91 -2 -102 16 -4 20 -14 20 -47 1 -124 8 -204 20 -223 20 -31 85 -64 99
-50 8 8 11 8 11 -1 0 -6 7 -9 17 -5 12 5 14 3 9 -8 -4 -8 0 -5 9 6 18 22 24
23 36 3 7 -10 9 -9 9 5 0 15 11 21 32 18 4 0 4 7 1 16 -4 10 -2 14 5 9 18 -11
-6 57 -25 72 -10 7 -31 11 -48 10 l-30 -3 0 78 c0 62 3 82 18 98 10 11 23 16
29 13 6 -4 8 -3 5 3 -4 6 -1 13 7 16 20 8 14 67 -9 83 -10 8 -26 14 -36 14
-10 0 -16 8 -16 23 -1 57 -5 70 -28 92 -31 32 -59 32 -91 0z"/>
<path d="M190 2643 c-217 -75 -252 -383 -57 -498 24 -13 59 -27 78 -29 19 -3
34 -5 34 -6 0 -7 56 -14 75 -9 9 3 14 -2 12 -11 -3 -11 2 -10 17 4 12 11 21
15 21 10 0 -5 5 -2 10 6 8 12 10 12 10 -5 1 -19 1 -19 11 -1 9 15 13 16 20 5
7 -11 9 -11 9 2 0 9 11 21 25 27 18 8 23 8 21 -1 -1 -7 -1 -9 1 -4 3 4 9 5 14
2 5 -4 6 1 3 9 -4 11 0 16 10 16 9 0 15 6 14 13 -2 6 3 11 11 9 8 -2 11 3 8
11 -2 7 1 21 8 31 22 29 7 46 -39 47 -22 1 -33 3 -23 6 9 2 17 9 17 14 0 6 4
7 10 4 6 -3 7 1 4 9 -3 9 -1 16 5 16 6 0 11 9 11 20 0 11 3 20 8 20 9 0 8 70
-2 127 -24 134 -193 210 -346 156z m178 -86 c21 -1 3 -10 -25 -13 -15 -2 -32
1 -38 5 -5 5 -18 7 -28 6 -9 -2 -15 0 -12 5 3 5 24 6 48 3 23 -3 48 -6 55 -6z
m-192 -38 c-30 -24 -66 -88 -66 -119 0 -11 -4 -20 -9 -20 -11 0 0 43 19 81 16
30 61 79 73 79 5 0 -2 -9 -17 -21z m275 -54 c5 -36 -11 -92 -32 -111 -20 -18
-20 -18 -13 11 4 17 12 36 18 44 9 12 8 13 -2 7 -11 -7 -12 -4 -3 12 6 11 11
33 11 48 0 31 16 22 21 -11z m-151 -52 c0 -76 -73 -138 -80 -68 -4 39 0 54 23
76 12 12 16 18 8 14 -10 -5 -12 -4 -7 4 4 6 11 9 16 6 5 -3 11 -1 15 5 12 19
25 -1 25 -37z m-190 -78 c0 -14 -2 -25 -4 -25 -2 0 -6 11 -8 25 -3 14 -1 25 3
25 5 0 9 -11 9 -25z m63 -97 c30 -16 110 -19 119 -5 5 8 8 8 8 1 0 -6 15 -10
35 -9 19 1 35 -2 35 -6 0 -12 -64 -22 -102 -16 -86 14 -118 31 -146 77 -12 21
-11 20 8 -3 12 -15 32 -33 43 -39z m234 -14 c-3 -3 -12 -4 -19 -1 -8 3 -5 6 6
6 11 1 17 -2 13 -5z"/>
<path d="M1185 2645 c-5 -2 -22 -6 -37 -9 -53 -12 -112 -79 -125 -145 -28
-137 29 -234 164 -278 23 -8 33 -8 37 1 2 6 5 5 5 -4 1 -13 2 -13 11 0 8 13
10 12 10 -4 0 -19 0 -19 13 -1 8 10 19 15 25 11 6 -3 14 -2 17 4 4 6 16 8 27
4 16 -5 20 -3 15 9 -4 10 0 14 11 12 22 -3 52 23 46 40 -3 7 0 16 7 21 8 5 10
3 4 -6 -5 -9 -4 -11 4 -6 6 4 9 16 6 27 -4 10 -2 19 3 19 10 0 10 2 12 83 4
106 -61 195 -157 218 -38 9 -79 10 -98 4z m97 -145 c20 -24 24 -84 8 -124 -13
-34 -53 -53 -87 -40 -32 11 -57 71 -39 93 9 12 8 13 -2 7 -11 -7 -12 -4 -3 13
7 11 8 21 4 21 -4 0 0 5 10 11 9 5 17 18 17 27 0 15 2 15 10 2 8 -13 10 -13
10 1 0 24 50 16 72 -11z m118 -224 c0 -2 -8 -10 -17 -17 -16 -13 -17 -12 -4 4
13 16 21 21 21 13z"/>
<path d="M2235 2638 c-81 -28 -126 -94 -131 -188 -5 -79 19 -142 69 -185 22
-19 47 -35 54 -35 8 0 12 -4 9 -9 -4 -5 4 -7 16 -3 14 3 19 1 14 -6 -6 -11 31
-9 41 2 3 3 16 1 29 -4 14 -6 26 -6 29 0 4 6 11 10 16 10 6 0 7 -6 3 -12 -6
-9 -3 -9 9 0 9 8 21 11 27 7 6 -4 9 -1 8 6 -2 6 3 14 11 17 9 3 11 0 6 -8 -6
-9 -4 -11 4 -6 7 5 10 14 8 20 -3 7 7 20 23 29 23 14 27 22 24 53 -1 19 -11
45 -21 57 -10 11 -12 17 -5 13 6 -4 12 -2 12 4 0 6 4 9 8 6 15 -9 13 91 -1
126 -41 96 -157 143 -262 106z m89 -110 c-5 -7 -3 -8 5 -4 12 8 40 -19 41 -37
0 -6 -90 -4 -118 2 -2 1 4 8 12 17 9 8 21 12 27 8 7 -4 9 -3 5 4 -3 5 0 13 6
15 22 9 29 7 22 -5z m-59 -148 c-3 -5 -1 -10 4 -10 6 0 11 6 12 13 0 6 4 3 9
-8 l9 -20 0 20 c1 17 3 17 11 5 9 -13 10 -13 11 0 0 10 3 8 9 -5 l9 -20 0 20
c1 17 3 17 11 5 9 -13 10 -13 11 0 0 10 3 8 9 -5 5 -11 9 -14 9 -7 1 6 8 12
17 12 25 0 -3 -30 -43 -46 -36 -15 -87 -3 -97 23 -6 14 0 33 10 33 3 0 2 -4
-1 -10z"/>
<path d="M3462 2639 c-98 -29 -155 -161 -121 -284 14 -52 92 -129 133 -133 17
-1 32 -5 35 -10 7 -9 101 -10 95 -1 -2 4 3 10 12 13 8 3 12 2 9 -4 -3 -6 -1
-10 4 -10 6 0 11 4 11 10 0 5 7 6 17 3 12 -5 14 -3 8 7 -6 10 -4 12 9 7 9 -4
15 -3 12 2 -3 5 5 16 18 26 29 22 34 89 8 118 -16 19 -16 20 1 14 11 -4 16 -3
12 3 -3 6 1 13 10 16 12 5 13 9 4 20 -9 11 -8 14 2 14 10 0 10 3 2 11 -6 6 -9
17 -7 23 8 20 -23 79 -58 112 -54 51 -133 67 -216 43z m118 -122 c32 -27 24
-34 -40 -34 -55 0 -58 1 -49 19 7 13 17 18 30 15 15 -4 18 -2 10 7 -16 19 26
13 49 -7z m-56 -140 c4 4 11 1 16 -7 8 -13 10 -13 10 1 0 14 6 16 35 9 20 -4
35 -4 35 1 0 5 5 9 10 9 22 0 -10 -38 -45 -54 -38 -19 -72 -14 -91 13 -15 20
-6 45 11 31 6 -5 15 -7 19 -3z"/>
<path d="M3839 2631 c-23 -19 -24 -23 -25 -188 -1 -92 3 -178 9 -190 12 -26
58 -47 85 -39 19 6 41 39 45 66 2 8 6 21 10 28 5 6 4 12 -1 12 -12 0 -10 43 3
52 6 5 6 8 -1 8 -11 0 -13 47 -3 65 4 6 5 18 3 28 -1 12 2 17 11 14 7 -3 12 1
11 11 -1 12 7 17 24 16 16 0 24 -5 22 -14 -2 -10 0 -11 10 -3 7 6 23 9 35 8
12 -1 20 2 17 7 -3 4 1 8 9 8 10 0 14 12 13 41 -1 32 -7 46 -26 61 -34 25 -88
30 -123 13 -26 -13 -32 -13 -50 0 -29 20 -50 19 -78 -4z"/>
<path d="M3940 2229 c0 -5 5 -7 10 -4 6 3 10 8 10 11 0 2 -4 4 -10 4 -5 0 -10
-5 -10 -11z"/>
<path d="M1761 2090 c-12 -35 -29 -38 -59 -10 -21 20 -23 20 -48 4 -22 -15
-25 -22 -19 -50 5 -27 2 -34 -15 -39 -11 -3 -29 -4 -39 0 -14 4 -23 0 -31 -14
-6 -13 -16 -18 -26 -14 -11 4 -12 9 -5 16 15 15 14 30 -1 21 -8 -5 -9 -2 -5
10 4 10 1 19 -8 22 -8 4 -12 10 -9 15 3 5 -4 9 -15 9 -12 0 -21 3 -21 8 0 4
-11 8 -25 8 -14 1 -25 -3 -25 -8 0 -6 -7 -8 -15 -4 -9 3 -15 0 -15 -9 0 -9 -6
-12 -17 -8 -13 5 -15 2 -10 -11 4 -11 1 -19 -9 -23 -13 -5 -13 -8 -2 -15 10
-7 10 -11 1 -15 -18 -7 -16 -23 3 -23 14 0 14 -3 4 -15 -10 -12 -10 -15 4 -15
9 0 16 -7 16 -16 0 -9 6 -14 13 -11 6 2 17 -3 24 -12 10 -12 12 -13 13 -2 0
10 3 11 14 2 10 -9 15 -8 19 4 4 9 13 12 23 8 11 -4 15 -2 11 4 -4 6 3 13 16
17 18 5 20 8 7 16 -13 8 -13 10 2 10 19 0 48 -36 48 -60 0 -9 -12 -20 -26 -26
-20 -7 -28 -17 -30 -41 -3 -28 0 -34 21 -39 41 -10 48 -28 24 -59 -21 -26 -21
-28 -5 -56 9 -16 15 -29 12 -29 -2 0 -11 -3 -20 -6 -11 -4 -16 -1 -16 10 0 25
-31 32 -46 11 -11 -15 -16 -16 -29 -5 -8 7 -21 10 -29 7 -15 -6 -46 22 -46 42
0 6 11 16 25 21 17 6 25 17 25 33 0 16 -9 28 -25 35 -28 13 -33 37 -9 50 24
13 0 54 -29 50 -33 -4 -48 10 -41 37 9 35 -30 54 -58 28 -19 -17 -20 -17 -34
2 -8 10 -14 22 -14 27 0 4 -11 8 -25 8 -18 0 -28 -7 -35 -25 -9 -23 -40 -36
-40 -16 0 16 -31 21 -48 8 -9 -6 -17 -25 -17 -42 0 -28 -2 -30 -32 -27 -25 3
-33 -1 -38 -18 -4 -12 -2 -27 4 -33 18 -18 13 -47 -9 -47 -11 0 -21 -4 -21
-10 -1 -5 -2 -14 -3 -20 -2 -15 -21 -12 -21 3 0 6 -10 11 -23 10 -14 -2 -22 3
-22 12 0 20 -19 19 -27 -1 -6 -15 -7 -15 -19 1 -12 17 -14 17 -20 1 -4 -11
-13 -15 -25 -11 -15 5 -19 1 -19 -15 0 -15 -5 -20 -15 -17 -17 7 -30 -9 -15
-18 7 -5 5 -12 -7 -21 -16 -12 -16 -15 -3 -25 11 -8 12 -12 3 -16 -18 -7 -16
-33 1 -33 9 0 12 -7 9 -21 -5 -16 -2 -20 13 -17 14 2 18 -2 16 -15 -3 -15 1
-17 17 -12 15 5 21 2 21 -9 0 -19 11 -20 29 -3 11 10 14 10 18 0 7 -18 23 -16
23 2 0 12 7 14 26 9 21 -5 25 -3 22 12 -2 11 3 19 12 19 8 0 15 7 16 15 2 30
4 32 21 19 9 -8 28 -14 42 -14 21 0 26 -5 26 -25 0 -14 4 -31 8 -37 11 -18 42
-16 57 2 10 12 16 13 26 4 8 -6 14 -17 14 -24 0 -7 7 -16 16 -19 20 -8 54 11
54 29 0 17 31 20 47 4 19 -19 55 8 51 39 -2 22 1 28 22 30 21 3 22 2 11 -12
-7 -8 -10 -24 -6 -36 5 -16 2 -23 -14 -27 -29 -7 -27 -40 3 -45 21 -4 25 0 31
26 24 126 206 129 230 4 6 -30 17 -37 40 -28 17 7 17 9 3 9 -19 1 -24 26 -8
36 6 4 8 11 5 16 -4 5 6 4 21 -1 21 -8 31 -7 44 5 28 25 57 19 63 -13 5 -25
10 -28 41 -28 29 1 35 5 40 28 4 22 11 28 31 28 14 0 25 -4 25 -9 0 -18 32
-20 55 -5 19 12 23 22 19 43 -8 36 16 57 46 41 12 -7 19 -18 16 -26 -3 -8 6
-20 24 -29 29 -15 29 -15 12 -46 -16 -28 -16 -31 0 -43 9 -7 33 -10 53 -8 33
4 35 6 21 21 -54 59 -52 158 4 221 73 82 210 70 265 -24 42 -72 39 -123 -10
-191 l-22 -30 48 3 c53 4 70 24 44 52 -22 24 -19 37 10 44 20 5 25 13 25 37 0
26 3 30 23 27 17 -2 21 -9 19 -27 -1 -13 3 -30 9 -37 13 -16 49 -19 49 -5 0 5
7 12 15 15 10 4 19 -2 25 -18 13 -35 70 -43 70 -11 0 22 20 28 45 15 32 -17
60 0 60 37 0 21 5 29 23 31 17 3 22 -2 22 -19 0 -12 8 -28 18 -35 14 -11 15
-16 5 -33 -17 -27 -6 -51 23 -51 13 0 24 -4 24 -10 0 -5 11 -10 24 -10 l24 0
-29 31 c-16 17 -29 39 -30 48 0 9 -2 23 -4 32 -5 26 30 93 58 112 87 57 207
-7 207 -110 0 -32 -25 -84 -46 -96 -24 -14 -15 -22 23 -21 42 1 69 28 43 44
-12 7 -12 12 -2 22 7 7 18 13 24 13 6 0 13 10 14 22 3 15 -3 24 -17 28 -25 8
-20 29 9 33 15 2 22 -2 22 -12 0 -10 6 -13 15 -10 10 4 15 0 15 -11 0 -14 3
-15 14 -6 11 9 16 9 21 0 6 -8 11 -6 18 6 8 14 11 15 18 4 7 -11 9 -10 9 4 0
9 7 17 16 17 10 0 14 6 10 15 -3 9 0 15 9 15 8 0 15 5 15 10 0 6 -5 10 -11 10
-8 0 -9 4 0 13 6 8 7 17 3 21 -4 4 -7 13 -7 19 -1 7 -6 11 -13 9 -7 -1 -12 5
-12 13 0 8 -6 15 -14 15 -8 0 -17 6 -19 13 -4 9 -8 9 -15 -2 -8 -11 -10 -11
-15 0 -4 11 -7 12 -15 1 -5 -7 -15 -12 -23 -10 -8 2 -13 -3 -11 -11 2 -9 -3
-11 -14 -7 -12 5 -15 2 -10 -9 3 -9 -1 -18 -9 -22 -12 -4 -13 -8 -3 -20 10
-12 7 -14 -23 -11 -26 2 -33 7 -31 21 5 29 -16 49 -39 36 -22 -11 -39 -4 -39
17 0 8 -10 14 -25 14 -16 0 -25 -6 -25 -15 0 -17 -25 -20 -35 -5 -9 14 -45 12
-46 -2 -1 -7 -2 -20 -3 -28 -1 -10 -10 -14 -25 -12 -13 1 -29 -5 -37 -15 -12
-17 -13 -17 -19 -1 -9 23 2 38 26 38 14 0 19 7 19 30 0 23 -4 30 -20 30 -28 0
-36 27 -16 49 15 16 15 22 4 40 -8 14 -19 19 -31 15 -25 -8 -45 12 -40 40 6
31 -28 54 -47 31 -19 -23 -47 -18 -54 10 -5 18 -13 25 -31 25 -18 0 -28 -8
-35 -25 -11 -29 -35 -33 -48 -8 -9 15 -12 16 -35 0 -19 -12 -23 -22 -19 -43 5
-25 3 -26 -28 -22 -26 4 -34 1 -43 -19 -8 -18 -7 -27 7 -42 18 -19 17 -21 -11
-38 -19 -12 -29 -26 -29 -43 0 -18 -5 -26 -22 -28 -22 -3 -26 3 -23 45 3 29
-34 41 -59 18 -16 -15 -19 -15 -34 0 -9 9 -14 20 -11 25 6 10 -24 17 -47 12
-10 -2 -18 -12 -18 -22 0 -25 -21 -31 -43 -12 -13 12 -22 13 -40 5 -20 -9 -23
-17 -19 -44 5 -31 4 -32 -26 -26 -25 5 -34 2 -42 -13 -14 -26 -30 -26 -30 1 0
13 10 23 30 30 17 6 30 14 31 17 0 4 2 14 4 23 4 22 -4 32 -37 46 -33 15 -35
33 -8 58 17 16 18 20 6 44 -12 21 -21 26 -53 26 -37 0 -38 1 -38 38 0 31 -5
41 -25 52 -22 12 -27 11 -48 -8 -27 -25 -55 -15 -60 22 -3 17 -10 21 -37 21
-28 0 -35 -5 -44 -30z m-297 -69 c45 -50 -18 -121 -66 -74 -26 26 -18 70 15
83 31 12 32 12 51 -9z m426 -3 c115 -50 161 -192 96 -302 -53 -90 -178 -131
-268 -87 -167 81 -173 297 -11 382 58 31 122 33 183 7z m877 -77 c52 -24 93
-89 93 -150 0 -117 -129 -200 -237 -151 -69 31 -103 88 -98 163 4 61 36 110
88 136 52 26 99 26 154 2z m-1489 -50 c40 -28 72 -89 72 -135 0 -112 -103
-193 -207 -164 -75 20 -117 67 -129 143 -8 53 33 133 83 163 50 30 134 27 181
-7z m1219 -146 c9 -24 -1 -27 -15 -5 -8 13 -8 20 -2 20 6 0 13 -7 17 -15z
m861 3 c19 -19 15 -66 -7 -78 -41 -21 -81 0 -81 44 0 29 18 46 50 46 14 0 31
-5 38 -12z m-2485 -19 c30 -16 37 -28 37 -66 0 -22 -7 -37 -22 -47 -30 -21
-50 -20 -82 5 -49 38 -27 101 42 118 2 1 13 -4 25 -10z m117 -33 c0 -17 -28
-41 -37 -32 -4 3 2 12 12 20 18 13 18 14 -3 20 -12 4 -20 12 -17 17 8 12 45
-8 45 -25z m1093 -21 c-5 -13 -23 -22 -23 -11 0 15 14 35 21 31 4 -3 6 -12 2
-20z m405 -11 c-10 -10 -28 6 -28 24 0 15 1 15 17 -1 9 -9 14 -19 11 -23z
m427 5 c-10 -15 -25 -10 -19 6 4 8 10 12 15 9 5 -3 7 -10 4 -15z m-1288 -20
c13 -13 5 -56 -13 -63 -7 -3 -17 0 -21 7 -24 39 4 86 34 56z m-227 -24 c0 -8
-7 -15 -16 -15 -14 0 -14 3 -4 15 7 8 14 15 16 15 2 0 4 -7 4 -15z"/>
<path d="M757 1473 c-14 -13 -6 -33 13 -33 11 0 20 6 20 14 0 9 7 12 21 9 18
-5 20 -11 16 -39 -8 -45 9 -53 17 -8 4 19 14 38 21 41 25 9 9 18 -33 17 -22 0
-48 -7 -58 -15 -16 -12 -17 -12 -11 4 7 18 5 21 -6 10z"/>
<path d="M1125 1460 c-13 -39 -12 -72 3 -77 19 -8 29 6 12 17 -12 7 -11 12 4
29 11 12 14 21 8 21 -6 0 -12 8 -14 18 -3 13 -6 12 -13 -8z"/>
<path d="M1765 1461 c-3 -11 -12 -18 -19 -15 -14 5 -46 -20 -46 -36 0 -13 22
-25 47 -25 18 -1 22 6 28 43 7 47 1 67 -10 33z m-10 -40 c7 -12 -12 -24 -25
-16 -11 7 -4 25 10 25 5 0 11 -4 15 -9z"/>
<path d="M1845 1461 c-4 -13 -12 -17 -25 -14 -14 4 -21 -1 -26 -21 -8 -32 -1
-41 32 -41 13 -1 24 -1 25 0 0 0 3 21 6 48 5 48 -1 62 -12 28z m-7 -43 c-6
-18 -28 -21 -28 -4 0 9 7 16 16 16 9 0 14 -5 12 -12z"/>
<path d="M2780 1461 c-5 -11 -10 -32 -10 -48 0 -23 5 -29 25 -31 16 -1 28 5
35 19 16 28 5 53 -21 46 -16 -4 -19 -2 -14 14 8 25 -1 25 -15 0z m40 -46 c0
-8 -7 -15 -15 -15 -8 0 -15 7 -15 15 0 8 7 15 15 15 8 0 15 -7 15 -15z"/>
<path d="M3015 1470 c-3 -5 -1 -10 4 -10 6 0 11 5 11 10 0 6 -2 10 -4 10 -3 0
-8 -4 -11 -10z"/>
<path d="M1166 1429 c-8 -49 -1 -63 13 -25 12 30 36 36 26 7 -3 -11 -1 -22 5
-26 5 -3 10 0 10 9 0 8 3 22 6 31 5 11 0 18 -15 22 -11 3 -21 9 -21 14 0 5 -4
9 -9 9 -5 0 -11 -19 -15 -41z"/>
<path d="M2066 1458 c-13 -40 -15 -68 -6 -73 8 -5 14 12 9 28 0 1 4 14 10 30
7 18 7 27 0 27 -5 0 -11 -6 -13 -12z"/>
<path d="M2295 1457 c-14 -16 -4 -69 14 -75 9 -3 11 2 6 17 -4 13 -1 28 5 36
10 12 10 15 1 15 -7 0 -9 5 -6 10 9 14 -8 12 -20 -3z"/>
<path d="M3346 1455 c-3 -8 -1 -15 3 -15 5 0 11 7 15 15 3 8 1 15 -3 15 -5 0
-11 -7 -15 -15z"/>
<path d="M3376 1455 c-3 -8 -1 -15 3 -15 5 0 11 7 15 15 3 8 1 15 -3 15 -5 0
-11 -7 -15 -15z"/>
<path d="M886 1434 c-19 -19 -17 -33 6 -48 22 -13 50 10 46 38 -4 27 -31 32
-52 10z m39 -14 c3 -6 -1 -13 -10 -16 -19 -8 -30 0 -20 15 8 14 22 14 30 1z"/>
<path d="M959 1429 c-11 -22 5 -54 22 -43 5 3 9 0 9 -6 0 -7 -8 -9 -20 -5 -11
4 -20 2 -20 -4 0 -15 45 -14 58 2 5 6 11 26 14 43 4 28 2 31 -24 32 -18 0 -32
-6 -39 -19z m45 -20 c-5 -9 -34 -13 -34 -5 0 2 3 12 6 20 5 13 9 14 20 5 8 -6
11 -15 8 -20z"/>
<path d="M1040 1429 c-15 -28 8 -56 37 -44 16 7 15 9 -7 15 l-25 8 28 1 c21 1
28 5 25 19 -5 26 -44 27 -58 1z m40 1 c0 -5 -4 -10 -10 -10 -5 0 -10 5 -10 10
0 6 5 10 10 10 6 0 10 -4 10 -10z"/>
<path d="M1252 1438 c-27 -27 -3 -66 31 -52 21 8 20 64 -2 64 -9 0 -22 -5 -29
-12z m28 -8 c0 -5 -5 -10 -11 -10 -5 0 -7 5 -4 10 3 6 8 10 11 10 2 0 4 -4 4
-10z m3 -27 c-7 -2 -19 -2 -25 0 -7 3 -2 5 12 5 14 0 19 -2 13 -5z"/>
<path d="M1324 1441 c-9 -9 -4 -62 6 -56 6 3 10 15 10 26 0 10 6 19 14 19 8 0
18 4 21 10 6 9 -41 11 -51 1z"/>
<path d="M1421 1423 c-1 -17 4 -35 9 -38 13 -8 26 25 13 34 -6 3 -13 13 -16
21 -3 8 -6 1 -6 -17z"/>
<path d="M1456 1442 c-4 -7 -2 -20 6 -29 7 -9 12 -18 10 -20 -2 -3 -1 -7 1
-10 3 -3 13 9 22 27 9 18 14 34 11 37 -3 3 -8 -2 -12 -11 -8 -21 -22 -21 -26
2 -3 13 -5 14 -12 4z"/>
<path d="M1521 1428 c-9 -25 3 -48 25 -48 17 0 37 37 30 56 -9 22 -46 17 -55
-8z m42 -2 c7 -17 -1 -26 -22 -25 -12 0 -11 3 4 9 11 5 14 9 8 9 -7 1 -13 6
-13 11 0 15 17 12 23 -4z"/>
<path d="M1634 1439 c-4 -7 0 -9 13 -5 14 4 19 1 20 -14 1 -11 -3 -20 -8 -20
-6 0 -7 5 -4 10 10 16 -11 12 -25 -5 -14 -17 -15 -17 28 -19 30 -2 32 0 32 31
0 28 -3 33 -24 33 -14 0 -28 -5 -32 -11z"/>
<path d="M1910 1435 c0 -9 5 -26 11 -37 11 -20 12 -20 30 8 25 38 24 56 -1 24
-15 -20 -20 -21 -20 -8 0 9 -4 20 -10 23 -5 3 -10 -1 -10 -10z"/>
<path d="M1984 1439 c-4 -8 0 -9 15 -4 17 5 21 2 21 -14 0 -13 -6 -21 -17 -21
-15 0 -16 2 -3 10 8 5 12 11 9 14 -9 10 -42 -20 -35 -32 3 -6 19 -9 34 -8 22
3 28 9 30 35 3 27 0 31 -22 31 -14 0 -28 -5 -32 -11z"/>
<path d="M2100 1425 c0 -14 0 -28 0 -32 0 -5 11 -8 25 -8 14 -1 25 4 25 10 0
5 3 20 6 33 4 12 2 22 -4 22 -6 0 -12 -10 -14 -22 -2 -12 -9 -23 -16 -26 -9
-3 -11 3 -6 22 4 16 2 26 -5 26 -6 0 -11 -11 -11 -25z"/>
<path d="M2182 1438 c-30 -30 -2 -70 35 -49 16 9 14 11 -12 12 l-30 1 29 7
c17 3 29 9 28 14 -1 4 -2 12 -2 17 0 14 -33 13 -48 -2z m33 -8 c3 -5 -1 -10
-10 -10 -9 0 -13 5 -10 10 3 6 8 10 10 10 2 0 7 -4 10 -10z"/>
<path d="M2341 1436 c-15 -17 -6 -56 13 -56 23 0 48 26 44 46 -4 24 -40 30
-57 10z m39 -22 c0 -8 -7 -14 -15 -14 -15 0 -21 21 -9 33 10 9 24 -2 24 -19z"/>
<path d="M2455 1411 c5 -33 3 -40 -12 -44 -15 -4 -14 -5 4 -6 17 -1 28 9 43
39 25 50 25 62 0 30 l-20 -25 0 23 c0 12 -5 22 -11 22 -7 0 -8 -14 -4 -39z"/>
<path d="M2526 1434 c-12 -12 -13 -20 -6 -35 14 -25 35 -24 54 3 27 38 -15 66
-48 32z m44 -13 c0 -14 -18 -23 -30 -16 -6 4 -8 11 -5 16 8 12 35 12 35 0z"/>
<path d="M2600 1415 c0 -30 3 -34 23 -32 12 1 25 7 29 12 11 15 9 57 -2 50 -5
-3 -10 -15 -10 -26 0 -10 -4 -19 -10 -19 -5 0 -10 11 -10 25 0 14 -4 25 -10
25 -5 0 -10 -16 -10 -35z"/>
<path d="M2678 1418 c-6 -36 8 -47 16 -13 4 14 13 25 21 25 8 0 15 4 15 9 0 5
-11 9 -24 9 -19 0 -25 -7 -28 -30z"/>
<path d="M2854 1426 c-8 -32 2 -47 29 -42 21 3 43 51 27 61 -4 3 -11 -6 -14
-20 -4 -14 -11 -25 -17 -25 -6 0 -9 9 -6 20 3 11 1 22 -4 25 -4 3 -11 -5 -15
-19z"/>
<path d="M2935 1439 c-4 -6 1 -17 11 -25 17 -14 17 -15 2 -10 -10 3 -18 1 -18
-4 0 -17 19 -21 41 -9 l22 11 -24 20 -24 19 24 -6 c16 -5 21 -4 17 4 -9 14
-43 14 -51 0z"/>
<path d="M3006 1428 c-3 -13 -6 -30 -6 -37 0 -23 16 0 24 32 8 32 -9 37 -18 5z"/>
<path d="M3044 1433 c-2 -7 -6 -20 -9 -28 -2 -8 0 -17 5 -20 5 -3 12 6 16 20
8 33 24 32 24 -1 0 -14 4 -23 10 -19 6 3 10 19 10 35 0 26 -3 29 -26 28 -15
-2 -28 -8 -30 -15z"/>
<path d="M3126 1435 c-12 -12 -13 -21 -6 -36 12 -21 28 -24 50 -8 12 9 11 10
-7 6 -13 -3 -26 -1 -29 4 -3 5 7 9 21 9 20 0 26 4 23 17 -4 24 -32 28 -52 8z"/>
<path d="M3204 1438 c-4 -6 1 -17 11 -25 18 -12 17 -13 -6 -13 -22 -1 -22 -2
-6 -11 10 -6 25 -8 33 -5 19 7 18 36 -1 36 -8 0 -15 4 -15 10 0 5 7 7 15 4 8
-4 15 -1 15 5 0 15 -37 14 -46 -1z"/>
<path d="M3277 1443 c-8 -14 -2 -56 8 -60 6 -2 20 3 30 12 20 14 20 15 -2 21
-13 3 -23 11 -23 16 0 5 10 6 21 3 15 -5 19 -4 15 4 -8 12 -42 15 -49 4z"/>
</g>
</svg>
